REM DIRINDEX 1\2,1\4,1\5,1\6,1\7,1\3\8,1\3\9,1\3\10
REM DIRNAME folder01,folder02,folder03,folder04,folder05,folder06,folder07,folder08,folder09,folder10
TITLE ""
FILE "DB4500_5th_6C_29.mp3" MP3
  TRACK 01 AUDIO
    TITLE "0:"
    INDEX 01 00:00:00
  TRACK 02 AUDIO
    TITLE "8:cjc113_4444"
    INDEX 01 00:00:05
  TRACK 03 AUDIO
    TITLE "0:"
    INDEX 01 00:01:22
  TRACK 04 AUDIO
    TITLE "9:cjc113_4445"
    INDEX 01 00:01:28
  TRACK 05 AUDIO
    TITLE "0:"
    INDEX 01 00:02:43
  TRACK 06 AUDIO
    TITLE "10:cjc113_4446"
    INDEX 01 00:02:51
  TRACK 07 AUDIO
    TITLE "0:"
    INDEX 01 00:06:08
  TRACK 08 AUDIO
    TITLE "8:cjc113_4447"
    INDEX 01 00:06:39
  TRACK 09 AUDIO
    TITLE "0:"
    INDEX 01 00:09:26
  TRACK 10 AUDIO
    TITLE "9:cjc113_4448"
    INDEX 01 00:09:32
  TRACK 11 AUDIO
    TITLE "0:"
    INDEX 01 00:10:53
  TRACK 12 AUDIO
    TITLE "10:cjc113_4449"
    INDEX 01 00:10:61
  TRACK 13 AUDIO
    TITLE "0:"
    INDEX 01 00:14:25
  TRACK 14 AUDIO
    TITLE "8:cjc113_4450"
    INDEX 01 00:14:58
  TRACK 15 AUDIO
    TITLE "0:"
    INDEX 01 00:15:62
  TRACK 16 AUDIO
    TITLE "9:cjc113_4451"
    INDEX 01 00:15:70
  TRACK 17 AUDIO
    TITLE "0:"
    INDEX 01 00:17:14
  TRACK 18 AUDIO
    TITLE "10:cjc113_4452"
    INDEX 01 00:17:25
  TRACK 19 AUDIO
    TITLE "0:"
    INDEX 01 00:20:08
  TRACK 20 AUDIO
    TITLE "8:cjc113_4453"
    INDEX 01 00:20:41
  TRACK 21 AUDIO
    TITLE "0:"
    INDEX 01 00:21:58
  TRACK 22 AUDIO
    TITLE "9:cjc113_4454"
    INDEX 01 00:21:68
  TRACK 23 AUDIO
    TITLE "0:"
    INDEX 01 00:23:10
  TRACK 24 AUDIO
    TITLE "10:cjc113_4455"
    INDEX 01 00:23:18
  TRACK 25 AUDIO
    TITLE "0:"
    INDEX 01 00:26:44
  TRACK 26 AUDIO
    TITLE "8:cjc113_4456"
    INDEX 01 00:27:02
  TRACK 27 AUDIO
    TITLE "0:"
    INDEX 01 00:28:29
  TRACK 28 AUDIO
    TITLE "9:cjc113_4457"
    INDEX 01 00:28:35
  TRACK 29 AUDIO
    TITLE "0:"
    INDEX 01 00:29:56
  TRACK 30 AUDIO
    TITLE "10:cjc113_4458"
    INDEX 01 00:29:64
  TRACK 31 AUDIO
    TITLE "0:"
    INDEX 01 00:33:50
  TRACK 32 AUDIO
    TITLE "8:cjc113_4459"
    INDEX 01 00:34:08
  TRACK 33 AUDIO
    TITLE "0:"
    INDEX 01 00:35:19
  TRACK 34 AUDIO
    TITLE "9:cjc113_4460"
    INDEX 01 00:35:27
  TRACK 35 AUDIO
    TITLE "0:"
    INDEX 01 00:36:44
  TRACK 36 AUDIO
    TITLE "10:cjc113_4461"
    INDEX 01 00:36:50
  TRACK 37 AUDIO
    TITLE "0:"
    INDEX 01 00:40:32
  TRACK 38 AUDIO
    TITLE "8:cjc113_4462"
    INDEX 01 00:40:62
  TRACK 39 AUDIO
    TITLE "0:"
    INDEX 01 00:41:65
  TRACK 40 AUDIO
    TITLE "9:cjc113_4463"
    INDEX 01 00:41:73
  TRACK 41 AUDIO
    TITLE "0:"
    INDEX 01 00:43:46
  TRACK 42 AUDIO
    TITLE "10:cjc113_4464"
    INDEX 01 00:43:52
  TRACK 43 AUDIO
    TITLE "0:"
    INDEX 01 00:47:19
  TRACK 44 AUDIO
    TITLE "8:cjc113_4465"
    INDEX 01 00:47:54
  TRACK 45 AUDIO
    TITLE "0:"
    INDEX 01 00:48:65
  TRACK 46 AUDIO
    TITLE "9:cjc113_4466"
    INDEX 01 00:48:73
  TRACK 47 AUDIO
    TITLE "0:"
    INDEX 01 00:50:11
  TRACK 48 AUDIO
    TITLE "10:cjc113_4467"
    INDEX 01 00:50:19
  TRACK 49 AUDIO
    TITLE "0:"
    INDEX 01 00:53:41
  TRACK 50 AUDIO
    TITLE "8:cjc113_4468"
    INDEX 01 00:53:74
  TRACK 51 AUDIO
    TITLE "0:"
    INDEX 01 00:55:10
  TRACK 52 AUDIO
    TITLE "9:cjc113_4469"
    INDEX 01 00:55:18
  TRACK 53 AUDIO
    TITLE "0:"
    INDEX 01 00:56:27
  TRACK 54 AUDIO
    TITLE "10:cjc113_4470"
    INDEX 01 00:56:33
  TRACK 55 AUDIO
    TITLE "0:"
    INDEX 01 00:59:73
  TRACK 56 AUDIO
    TITLE "8:cjc113_4471"
    INDEX 01 01:00:27
  TRACK 57 AUDIO
    TITLE "0:"
    INDEX 01 01:01:38
  TRACK 58 AUDIO
    TITLE "9:cjc113_4472"
    INDEX 01 01:01:46
  TRACK 59 AUDIO
    TITLE "0:"
    INDEX 01 01:03:08
  TRACK 60 AUDIO
    TITLE "10:cjc113_4473"
    INDEX 01 01:03:16
  TRACK 61 AUDIO
    TITLE "0:"
    INDEX 01 01:06:49
  TRACK 62 AUDIO
    TITLE "8:cjc113_4474"
    INDEX 01 01:07:02
  TRACK 63 AUDIO
    TITLE "0:"
    INDEX 01 01:08:11
  TRACK 64 AUDIO
    TITLE "9:cjc113_4475"
    INDEX 01 01:08:21
  TRACK 65 AUDIO
    TITLE "0:"
    INDEX 01 01:09:26
  TRACK 66 AUDIO
    TITLE "10:cjc113_4476"
    INDEX 01 01:09:34
  TRACK 67 AUDIO
    TITLE "0:"
    INDEX 01 01:13:14
  TRACK 68 AUDIO
    TITLE "8:cjc113_4477"
    INDEX 01 01:13:44
  TRACK 69 AUDIO
    TITLE "0:"
    INDEX 01 01:14:66
  TRACK 70 AUDIO
    TITLE "9:cjc113_4478"
    INDEX 01 01:15:01
  TRACK 71 AUDIO
    TITLE "0:"
    INDEX 01 01:16:52
  TRACK 72 AUDIO
    TITLE "10:cjc113_4479"
    INDEX 01 01:16:56
  TRACK 73 AUDIO
    TITLE "0:"
    INDEX 01 01:19:74
